<svg xmlns="http://www.w3.org/2000/svg" xmlns:xlink="http://www.w3.org/1999/xlink" preserveAspectRatio="xMidYMid" width="23.907" height="44.625" viewBox="0 0 23.907 44.625">
  <defs>
    <style>
      .cls-1 {
        fill: #000;
        fill-rule: evenodd;
      }
    </style>
  </defs>
  <path d="M23.358,41.541 L4.862,22.286 L23.358,3.030 C23.729,2.693 23.915,2.279 23.915,1.789 C23.915,1.299 23.729,0.869 23.358,0.496 C23.020,0.159 22.606,-0.010 22.116,-0.010 C21.626,-0.010 21.212,0.159 20.875,0.496 L0.555,21.019 C0.183,21.391 -0.002,21.822 -0.002,22.311 C-0.002,22.801 0.183,23.215 0.555,23.553 L20.875,44.075 C21.212,44.447 21.626,44.632 22.116,44.632 C22.606,44.632 23.020,44.447 23.358,44.075 C23.729,43.738 23.915,43.315 23.915,42.808 C23.915,42.302 23.729,41.880 23.358,41.541 L23.358,41.541 Z" class="cls-1"/>
</svg>
