<svg xmlns="http://www.w3.org/2000/svg" xmlns:xlink="http://www.w3.org/1999/xlink" preserveAspectRatio="xMidYMid" width="23.9" height="44.656" viewBox="0 0 23.9 44.656">
  <defs>
    <style>
      .cls-1 {
        fill: #000;
        fill-rule: evenodd;
      }
    </style>
  </defs>
  <path d="M0.556,3.098 L19.052,22.353 L0.556,41.609 C0.185,41.946 -0.001,42.360 -0.001,42.850 C-0.001,43.340 0.185,43.770 0.556,44.143 C0.894,44.480 1.309,44.649 1.798,44.649 C2.288,44.649 2.702,44.480 3.039,44.143 L23.359,23.620 C23.731,23.248 23.917,22.817 23.917,22.328 C23.917,21.838 23.731,21.424 23.359,21.086 L3.039,0.564 C2.702,0.192 2.288,0.007 1.798,0.007 C1.309,0.007 0.894,0.192 0.556,0.564 C0.185,0.901 -0.001,1.324 -0.001,1.831 C-0.001,2.337 0.185,2.759 0.556,3.098 L0.556,3.098 Z" class="cls-1"/>
</svg>
